<svg xmlns="http://www.w3.org/2000/svg" height="540" width="360">
    <g xmlns="http://www.w3.org/2000/svg" transform="translate(0 -513)">
        <rect rx="29.944" ry="29.944" y="512.862" x=".5" height="539" width="359"
            style="fill:#fff;stroke:#000;stroke-width:.99999976" />
        <path style="fill:#f55;fill-opacity:1;stroke:none"
            d="M30 542.362c-5.54 0-10 4.46-10 10v5c0 3.004 1.323 5.67 3.406 7.5-2.083 1.83-3.406 4.496-3.406 7.5v10c0 5.54 4.46 10 10 10s10-4.46 10-10v-10c0-3.004-1.323-5.67-3.406-7.5 2.083-1.83 3.406-4.496 3.406-7.5v-5c0-5.54-4.46-10-10-10zm0 5c2.77 0 5 2.23 5 5v5c0 2.77-2.23 5-5 5s-5-2.23-5-5v-5c0-2.77 2.23-5 5-5zm0 20c2.77 0 5 2.23 5 5v10c0 2.77-2.23 5-5 5s-5-2.23-5-5v-10c0-2.77 2.23-5 5-5zM330 1022.362c-5.54 0-10-4.46-10-10v-5c0-3.003 1.323-5.67 3.406-7.5-2.083-1.83-3.406-4.496-3.406-7.5v-10c0-5.54 4.46-10 10-10s10 4.46 10 10v10c0 3.004-1.323 5.67-3.406 7.5 2.083 1.83 3.406 4.496 3.406 7.5v5c0 5.54-4.46 10-10 10zm0-5c2.77 0 5-2.23 5-5v-5c0-2.77-2.23-5-5-5s-5 2.23-5 5v5c0 2.77 2.23 5 5 5zm0-20c2.77 0 5-2.23 5-5v-10c0-2.77-2.23-5-5-5s-5 2.23-5 5v10c0 2.77 2.23 5 5 5z" />
        <path
            d="M90 557.362s6 15 13 25 17 20 17 20-10 10-17 20-13 25-13 25-6-15-13-25-17-20-17-20 10-10 17-20 13-25 13-25M270 557.362s6 15 13 25 17 20 17 20-10 10-17 20-13 25-13 25-6-15-13-25-17-20-17-20 10-10 17-20 13-25 13-25M180 647.362s6 15 13 25 17 20 17 20-10 10-17 20-13 25-13 25-6-15-13-25-17-20-17-20 10-10 17-20 13-25 13-25M90 737.362s6 15 13 25 17 20 17 20-10 10-17 20-13 25-13 25-6-15-13-25-17-20-17-20 10-10 17-20 13-25 13-25M270 737.362s6 15 13 25 17 20 17 20-10 10-17 20-13 25-13 25-6-15-13-25-17-20-17-20 10-10 17-20 13-25 13-25M180 827.362s6 15 13 25 17 20 17 20-10 10-17 20-13 25-13 25-6-15-13-25-17-20-17-20 10-10 17-20 13-25 13-25M90 917.362s6 15 13 25 17 20 17 20-10 10-17 20-13 25-13 25-6-15-13-25-17-20-17-20 10-10 17-20 13-25 13-25M270 917.362s6 15 13 25 17 20 17 20-10 10-17 20-13 25-13 25-6-15-13-25-17-20-17-20 10-10 17-20 13-25 13-25M30 602.362s3 7.5 6.5 12.5 8.5 10 8.5 10-5 5-8.5 10-6.5 12.5-6.5 12.5-3-7.5-6.5-12.5-8.5-10-8.5-10 5-5 8.5-10 6.5-12.5 6.5-12.5M330 917.362s3 7.5 6.5 12.5 8.5 10 8.5 10-5 5-8.5 10-6.5 12.5-6.5 12.5-3-7.5-6.5-12.5-8.5-10-8.5-10 5-5 8.5-10 6.5-12.5 6.5-12.5"
            style="fill:#f55;stroke:none" />
    </g>
</svg>